# xmcd CD database file
#
# Track frame offsets:
#	150
#	16740
#	31937
#	49427
#	67717
#	81715
#	105085
#	122730
#	139260
#	156185
#	172830
#	197697
#
# Disc length: 2860 seconds
#
# Revision: 0
# Processed by: cddbd v1.4PL0 Copyright (c) Steve Scherf et al.
# Submitted via: CDex 1.50beta10
#
DISCID=940b2a0c
DTITLE=Lou Pride - Words Of Caution
DYEAR=2002
DGENRE=Blues
TTITLE0=Words Of Caution
TTITLE1=Love Sometimes
TTITLE2=You Were Never Mine
TTITLE3=Love For My Baby
TTITLE4=Don't Blame The Man
TTITLE5=It's A Good Thing
TTITLE6=I Found My Baby Gone
TTITLE7=Bringin' Me Back Home
TTITLE8=Livin' A Lie
TTITLE9=After The Party
TTITLE10=You Are My Rainbow
TTITLE11=Beware!
EXTD=YEAR: 2002
EXTT0=
EXTT1=
EXTT2=
EXTT3=
EXTT4=
EXTT5=
EXTT6=
EXTT7=
EXTT8=
EXTT9=
EXTT10=
EXTT11=
PLAYORDER=
